<?xml version="1.0" encoding="UTF-8"?>
<svg id="Calque_2" data-name="Calque 2" xmlns="http://www.w3.org/2000/svg" viewBox="0 0 340.07 91.13">
  <g id="Calque_1-2" data-name="Calque 1">
    <g>
      <path d="M.42,1.34h16.14l28.16,35.65V12.76c0-2.39-.68-4.31-2.04-5.75s-3.29-2.24-5.8-2.41V1.34h18.98v3.27c-2.65.28-4.55,1.07-5.7,2.37s-1.72,3.23-1.72,5.78v40.57h-4.06L12.34,12.31v28.41c0,3.25.74,5.62,2.23,7.11,1.49,1.49,3.33,2.23,5.54,2.23h.88v3.27H0v-3.27h1.44c2.06,0,3.8-.82,5.2-2.46,1.41-1.64,2.11-3.74,2.11-6.32V7.72c-1.57-2.08-3.57-3.12-6.01-3.12H.42V1.34Z"/>
      <path d="M99.11,49.25l1.48,2.53c-1.43.98-2.71,1.66-3.85,2.04-1.14.37-2.38.56-3.74.56-2.02,0-3.64-.43-4.89-1.28s-2.38-2.47-3.41-4.83c-2.39,2.37-4.54,3.98-6.43,4.83s-4.04,1.28-6.43,1.28c-3.3,0-5.88-.76-7.73-2.29s-2.78-3.46-2.78-5.8c0-3.54,1.71-6.38,5.13-8.51,2.74-1.69,8.75-3.38,18.04-5.06v-4.75c0-1.88-.62-3.4-1.86-4.59-1.24-1.18-2.91-1.78-4.99-1.78-1.59,0-3,.34-4.22,1.02-.82.45-1.23.89-1.23,1.34,0,.23.15.59.46,1.05.66,1.05.98,2.1.98,3.13,0,1.31-.43,2.37-1.3,3.18s-2.03,1.21-3.48,1.21c-1.55,0-2.79-.44-3.73-1.32s-1.41-2.01-1.41-3.39c0-2.27,1.23-4.28,3.69-6.01,3.07-2.16,6.89-3.23,11.46-3.23,3.45,0,6.5.54,9.18,1.62,1.71.68,3.1,1.87,4.17,3.57,1.07,1.7,1.6,3.79,1.6,6.28v16.7c0,1.27.23,2.18.7,2.74s1.11.84,1.93.84c.68,0,1.57-.36,2.67-1.09ZM84.48,35.79c-5.02.68-8.41,1.73-10.18,3.15-1.77,1.42-2.65,3.29-2.65,5.61,0,1.64.42,2.9,1.25,3.78s2,1.32,3.5,1.32c2.32,0,4.25-.83,5.78-2.5,1.54-1.66,2.3-3.94,2.3-6.82v-4.54Z"/>
      <path d="M105.75,20.43l14.62-.67v27.95c0,.75.24,1.33.72,1.74.48.41,1.21.62,2.2.62h2.21v3.27h-19.76v-3.27h2.18c1.17,0,2-.27,2.48-.81.48-.54.72-1.48.72-2.81v-19.05c0-1.2-.35-2.12-1.04-2.78-.69-.66-1.65-.98-2.87-.98h-1.48v-3.2ZM114.79,1.44c1.57,0,2.92.56,4.04,1.67,1.12,1.11,1.69,2.47,1.69,4.06s-.56,2.95-1.69,4.06c-1.12,1.11-2.47,1.67-4.04,1.67s-2.95-.56-4.08-1.69-1.69-2.47-1.69-4.04.56-2.95,1.69-4.06c1.12-1.11,2.48-1.67,4.08-1.67Z"/>
      <path d="M130.96,1.34l15.43-.77v46.79c0,.84.27,1.51.81,1.99.54.48,1.31.72,2.32.72h2.07v3.27h-19.83v-3.27h2.25c1.03,0,1.8-.28,2.3-.83s.76-1.39.76-2.52V8.26c0-1.2-.33-2.12-.98-2.76-.66-.64-1.55-.97-2.67-.97h-2.46V1.34Z"/>
      <path d="M156.9,23.87l-1.16-2.14c2.62-1.31,4.63-2.84,6.01-4.57,1.38-1.73,2.07-3.19,2.07-4.36,0-.7-.34-1.05-1.02-1.05l-.98.11c-.49.09-.88.14-1.16.14-1.57,0-2.95-.59-4.13-1.78-1.18-1.18-1.78-2.58-1.78-4.2s.59-3.05,1.78-4.24c1.18-1.18,2.64-1.78,4.38-1.78,2.13,0,3.96.84,5.47,2.53s2.27,3.82,2.27,6.4c0,2.72-1.02,5.46-3.06,8.23-2.04,2.77-4.93,5-8.68,6.71Z"/>
      <path d="M197.21,21.41l2.3-2.78h2.14l.7,11.25h-2.85c-1.5-2.99-3.15-5.09-4.94-6.3s-3.97-1.82-6.52-1.82c-2.2,0-3.88.42-5.03,1.27-1.15.85-1.72,1.91-1.72,3.21s.45,2.23,1.33,2.89c.89.68,3.33,1.42,7.31,2.22,3.61.73,6.01,1.34,7.21,1.83,2.27.91,4.05,2.27,5.33,4.08,1.28,1.81,1.92,3.92,1.92,6.33,0,3.05-1.22,5.61-3.67,7.69-2.45,2.07-5.66,3.11-9.64,3.11-1.92,0-3.66-.23-5.22-.69s-3.18-1.26-4.87-2.41l-2.51,2.95h-2.67l-.63-12.45h2.92c2.48,6.28,6.75,9.42,12.8,9.42,2.48,0,4.38-.48,5.7-1.44,1.31-.96,1.97-2.11,1.97-3.45,0-1.22-.41-2.15-1.23-2.78-.82-.63-3-1.31-6.54-2.04-3.82-.77-6.42-1.44-7.8-2-2.37-.91-4.15-2.18-5.34-3.81s-1.79-3.59-1.79-5.89c0-3.28,1.09-5.97,3.27-8.06,2.18-2.1,5.1-3.15,8.76-3.15,1.78,0,3.38.21,4.8.63s2.93,1.15,4.52,2.18Z"/>
      <path d="M211.57,1.34h30.45c5.16,0,9.3,1.38,12.45,4.15,3.14,2.77,4.71,6.15,4.71,10.16,0,3.05-.91,5.71-2.72,8s-4.25,3.94-7.31,4.97c-3.06,1.03-6.09,1.55-9.09,1.55h-9.63v16.95c0,.94.27,1.66.81,2.18.54.52,1.23.77,2.07.77h5.98v3.27h-27.7v-3.27h4.64c1.03,0,1.81-.26,2.34-.77.53-.52.79-1.24.79-2.18V7.49c0-.89-.27-1.59-.81-2.11-.54-.52-1.2-.77-1.97-.77h-4.99V1.34ZM230.41,26.96h6.43c2.25,0,4.25-.48,5.99-1.44,1.75-.96,2.99-2.13,3.73-3.5s1.11-3.59,1.11-6.66c0-4.22-1.14-7.19-3.41-8.93-1.66-1.24-4.5-1.86-8.51-1.86-2.32,0-3.79.19-4.41.58s-.93,1.05-.93,1.99v19.83Z"/>
      <path d="M287.79,50.06v3.27h-22.99v-3.27h2.85c1.17,0,2.03-.23,2.57-.69s.81-1.07.81-1.85v-19.48c0-1.57-.36-2.72-1.07-3.45-.71-.73-1.72-1.09-3.01-1.09h-1.86v-3.09l14.06-.74v10.72c.82-3.59,2.25-6.34,4.29-8.26,2.04-1.92,4.34-2.88,6.89-2.88,2.18,0,3.9.58,5.17,1.74s1.9,2.65,1.9,4.48c0,1.57-.44,2.84-1.32,3.81-.88.97-1.95,1.46-3.22,1.46-1.12,0-2.09-.42-2.9-1.27s-1.21-1.92-1.21-3.23c0-.73.19-1.49.57-2.29.2-.44.3-.76.3-.95,0-.33-.08-.57-.23-.72-.15-.15-.39-.23-.72-.23-.84,0-1.76.49-2.77,1.48-1.54,1.52-2.84,3.9-3.89,7.12-1.05,3.22-1.58,6.47-1.58,9.76v7.1c0,.82.22,1.45.67,1.88.45.43,1.07.65,1.86.65h4.82Z"/>
      <path d="M320.8,18.6c3.68,0,7.06.8,10.14,2.39,3.08,1.59,5.37,3.67,6.87,6.24s2.25,5.65,2.25,9.26c0,5.77-1.96,10.19-5.89,13.27-3.93,3.08-8.37,4.62-13.34,4.62-3.52,0-6.73-.79-9.65-2.37s-5.16-3.71-6.73-6.4c-1.57-2.68-2.36-5.71-2.36-9.09,0-5.09,1.78-9.35,5.33-12.78,3.55-3.43,8.01-5.15,13.38-5.15ZM321.01,21.94c-2.44,0-4.38,1.07-5.82,3.22s-2.16,5.91-2.16,11.3.71,9.46,2.14,11.58c1.43,2.12,3.36,3.18,5.8,3.18s4.49-1.09,6.01-3.27,2.29-5.94,2.29-11.29-.75-9.31-2.25-11.48c-1.5-2.17-3.5-3.25-6.01-3.25Z"/>
    </g>
    <g>
      <path d="M66.57,86.36v-17.18h12.42v2.03h-10.15v5.26h9.5v2.02h-9.5v5.85h10.55v2.03h-12.82Z"/>
      <path d="M80.86,86.36l4.55-6.47-4.21-5.98h2.64l1.91,2.92c.36.55.65,1.02.87,1.39.34-.52.66-.97.95-1.37l2.1-2.94h2.52l-4.3,5.86,4.63,6.59h-2.59l-2.55-3.87-.68-1.04-3.27,4.91h-2.55Z"/>
      <path d="M94.26,91.13v-17.21h1.92v1.62c.45-.63.96-1.11,1.54-1.42s1.26-.47,2.07-.47c1.06,0,2,.27,2.81.82s1.43,1.32,1.84,2.31.62,2.09.62,3.28c0,1.27-.23,2.42-.69,3.44s-1.12,1.8-1.99,2.34-1.79.81-2.75.81c-.7,0-1.33-.15-1.89-.45s-1.02-.67-1.38-1.12v6.06h-2.11ZM96.17,80.2c0,1.6.32,2.79.97,3.55s1.43,1.15,2.36,1.15,1.74-.4,2.41-1.19,1-2.02,1-3.69-.33-2.77-.98-3.56-1.43-1.18-2.34-1.18-1.69.42-2.38,1.26-1.04,2.06-1.04,3.66Z"/>
      <path d="M116.13,82.35l2.18.27c-.34,1.27-.98,2.26-1.91,2.96s-2.12,1.05-3.56,1.05c-1.82,0-3.26-.56-4.33-1.68s-1.6-2.69-1.6-4.72.54-3.72,1.62-4.88,2.48-1.73,4.2-1.73,3.02.57,4.08,1.7,1.58,2.73,1.58,4.78c0,.12,0,.31-.01.56h-9.28c.08,1.37.46,2.41,1.16,3.14s1.56,1.09,2.6,1.09c.77,0,1.43-.2,1.98-.61s.98-1.05,1.3-1.95ZM109.21,78.94h6.95c-.09-1.05-.36-1.83-.8-2.36-.67-.81-1.54-1.22-2.61-1.22-.97,0-1.78.32-2.44.97s-1.03,1.52-1.1,2.6Z"/>
      <path d="M120.94,86.36v-12.45h1.9v1.89c.48-.88.93-1.46,1.34-1.75s.86-.42,1.35-.42c.71,0,1.43.23,2.17.68l-.73,1.96c-.52-.3-1.03-.46-1.55-.46-.46,0-.88.14-1.24.42s-.63.66-.79,1.15c-.23.75-.35,1.57-.35,2.46v6.52h-2.11Z"/>
      <path d="M133.56,84.47l.3,1.86c-.59.12-1.12.19-1.59.19-.77,0-1.36-.12-1.78-.36s-.72-.56-.89-.96-.26-1.22-.26-2.49v-7.16h-1.55v-1.64h1.55v-3.08l2.1-1.27v4.35h2.12v1.64h-2.12v7.28c0,.6.04.99.11,1.16s.2.31.36.41.41.15.72.15c.23,0,.54-.03.93-.08Z"/>
      <path d="M135.63,71.6v-2.43h2.11v2.43h-2.11ZM135.63,86.36v-12.45h2.11v12.45h-2.11Z"/>
      <path d="M140.11,82.64l2.09-.33c.12.84.44,1.48.98,1.92s1.28.67,2.24.67,1.69-.2,2.16-.59.7-.86.7-1.39c0-.48-.21-.85-.62-1.12-.29-.19-1.01-.43-2.16-.71-1.55-.39-2.62-.73-3.22-1.01s-1.05-.68-1.36-1.18-.46-1.06-.46-1.67c0-.55.13-1.07.38-1.54s.6-.87,1.04-1.18c.33-.24.78-.45,1.34-.62s1.17-.25,1.82-.25c.98,0,1.83.14,2.57.42s1.28.66,1.63,1.14.59,1.12.73,1.93l-2.06.28c-.09-.64-.37-1.14-.81-1.5s-1.08-.54-1.9-.54c-.97,0-1.66.16-2.07.48s-.62.7-.62,1.12c0,.27.09.52.26.74.17.23.44.41.81.56.21.08.83.26,1.86.54,1.49.4,2.53.72,3.12.98s1.05.62,1.39,1.11.5,1.09.5,1.8-.21,1.37-.62,1.99-1,1.1-1.78,1.44-1.65.51-2.62.51c-1.62,0-2.85-.34-3.7-1.01s-1.39-1.67-1.62-2.99Z"/>
      <path d="M161.47,82.35l2.18.27c-.34,1.27-.98,2.26-1.91,2.96s-2.12,1.05-3.56,1.05c-1.82,0-3.26-.56-4.33-1.68s-1.6-2.69-1.6-4.72.54-3.72,1.62-4.88,2.48-1.73,4.2-1.73,3.02.57,4.08,1.7,1.58,2.73,1.58,4.78c0,.12,0,.31-.01.56h-9.28c.08,1.37.46,2.41,1.16,3.14s1.56,1.09,2.6,1.09c.77,0,1.43-.2,1.98-.61s.98-1.05,1.3-1.95ZM154.54,78.94h6.95c-.09-1.05-.36-1.83-.8-2.36-.67-.81-1.54-1.22-2.61-1.22-.97,0-1.78.32-2.44.97s-1.03,1.52-1.1,2.6Z"/>
      <path d="M181.09,84.82c-.78.66-1.53,1.13-2.26,1.41s-1.5.41-2.33.41c-1.37,0-2.42-.33-3.15-1s-1.1-1.52-1.1-2.56c0-.61.14-1.17.42-1.67s.64-.91,1.09-1.21.96-.54,1.52-.69c.41-.11,1.04-.21,1.88-.32,1.7-.2,2.96-.45,3.76-.73,0-.29.01-.47.01-.55,0-.86-.2-1.46-.6-1.82-.54-.48-1.34-.71-2.4-.71-.99,0-1.72.17-2.2.52s-.82.96-1.05,1.85l-2.06-.28c.19-.88.5-1.6.93-2.14s1.05-.96,1.86-1.25,1.75-.44,2.82-.44,1.93.12,2.59.38,1.15.56,1.46.94.53.86.66,1.44c.07.36.11,1.01.11,1.95v2.81c0,1.96.04,3.2.13,3.72s.27,1.02.53,1.49h-2.2c-.22-.44-.36-.95-.42-1.54ZM180.91,80.11c-.77.31-1.91.58-3.45.8-.87.12-1.48.27-1.84.42s-.64.38-.83.69-.29.63-.29,1c0,.56.21,1.03.64,1.41s1.05.56,1.87.56,1.54-.18,2.17-.53,1.1-.84,1.39-1.46c.23-.48.34-1.18.34-2.11v-.77ZM179.76,72.36h-1.7l-2.71-3.28h2.82l1.58,3.28Z"/>
      <path d="M193.25,86.36v-17.18h5.92c1.34,0,2.36.08,3.06.25.98.23,1.82.64,2.52,1.23.91.77,1.58,1.74,2.03,2.94s.67,2.55.67,4.08c0,1.3-.15,2.46-.46,3.47s-.7,1.84-1.17,2.5-1,1.18-1.56,1.56-1.25.67-2.05.86-1.72.29-2.76.29h-6.2ZM195.53,84.33h3.67c1.13,0,2.02-.11,2.67-.32s1.16-.51,1.54-.89c.54-.54.96-1.26,1.26-2.17s.45-2.01.45-3.31c0-1.8-.29-3.18-.88-4.14s-1.31-1.61-2.15-1.94c-.61-.23-1.59-.35-2.94-.35h-3.61v13.12Z"/>
      <path d="M209.53,80.13c0-2.3.64-4.01,1.92-5.12,1.07-.92,2.38-1.38,3.91-1.38,1.71,0,3.11.56,4.2,1.68s1.63,2.67,1.63,4.65c0,1.6-.24,2.86-.72,3.78s-1.18,1.63-2.1,2.14-1.92.76-3.01.76c-1.74,0-3.15-.56-4.22-1.68s-1.61-2.73-1.61-4.83ZM211.7,80.13c0,1.59.35,2.79,1.04,3.58s1.57,1.19,2.62,1.19,1.92-.4,2.61-1.2,1.04-2.01,1.04-3.64c0-1.54-.35-2.71-1.05-3.5s-1.57-1.19-2.61-1.19-1.93.39-2.62,1.18-1.04,1.98-1.04,3.57Z"/>
      <path d="M223.66,86.36v-12.45h1.89v1.75c.39-.61.91-1.1,1.56-1.47s1.39-.56,2.21-.56c.92,0,1.68.19,2.27.57s1.01.92,1.25,1.61c.98-1.45,2.27-2.18,3.84-2.18,1.23,0,2.18.34,2.85,1.03s1,1.74,1,3.16v8.54h-2.1v-7.84c0-.84-.07-1.45-.21-1.82s-.38-.67-.74-.9-.78-.34-1.27-.34c-.88,0-1.6.29-2.18.87s-.87,1.51-.87,2.79v7.23h-2.11v-8.09c0-.94-.17-1.64-.52-2.11s-.91-.7-1.69-.7c-.59,0-1.14.16-1.65.47s-.87.77-1.1,1.37-.34,1.47-.34,2.6v6.46h-2.11Z"/>
      <path d="M243.67,71.6v-2.43h2.11v2.43h-2.11ZM243.67,86.36v-12.45h2.11v12.45h-2.11Z"/>
      <path d="M257.11,81.8l2.07.27c-.23,1.43-.81,2.55-1.74,3.36s-2.08,1.21-3.44,1.21c-1.7,0-3.07-.56-4.11-1.67s-1.55-2.71-1.55-4.79c0-1.34.22-2.52.67-3.53s1.12-1.76,2.03-2.27,1.9-.76,2.97-.76c1.35,0,2.46.34,3.32,1.03s1.41,1.65,1.65,2.91l-2.05.32c-.2-.84-.54-1.46-1.04-1.89s-1.1-.63-1.8-.63c-1.06,0-1.93.38-2.59,1.14s-1,1.97-1,3.62.32,2.89.96,3.64,1.48,1.14,2.51,1.14c.83,0,1.52-.25,2.07-.76s.91-1.29,1.05-2.34Z"/>
      <path d="M261,71.6v-2.43h2.11v2.43h-2.11ZM261,86.36v-12.45h2.11v12.45h-2.11Z"/>
      <path d="M266.27,86.36v-17.18h2.11v17.18h-2.11Z"/>
      <path d="M280.17,82.35l2.18.27c-.34,1.27-.98,2.26-1.91,2.96s-2.12,1.05-3.56,1.05c-1.82,0-3.26-.56-4.33-1.68s-1.6-2.69-1.6-4.72.54-3.72,1.62-4.88,2.48-1.73,4.2-1.73,3.02.57,4.08,1.7,1.58,2.73,1.58,4.78c0,.12,0,.31-.01.56h-9.28c.08,1.37.46,2.41,1.16,3.14s1.56,1.09,2.6,1.09c.77,0,1.43-.2,1.98-.61s.98-1.05,1.3-1.95ZM273.24,78.94h6.95c-.09-1.05-.36-1.83-.8-2.36-.67-.81-1.54-1.22-2.61-1.22-.97,0-1.78.32-2.44.97s-1.03,1.52-1.1,2.6Z"/>
    </g>
  </g>
</svg>