<?xml version="1.0" encoding="UTF-8"?>
<svg id="Calque_2" data-name="Calque 2" xmlns="http://www.w3.org/2000/svg" viewBox="0 0 81.44 52">
  <defs>
    <style>
      .cls-1 {
        fill: #774d9a;
      }
    </style>
  </defs>
  <g id="Calque_1-2" data-name="Calque 1">
    <path class="cls-1" d="M76.73,4.15c-3.14-2.77-7.29-4.15-12.44-4.15h-30.45v3.27h3.04c1.68.11,3.11.51,4.28,1.22.3.46.45,1.01.45,1.66v25.56L16.56,0H.42v3.27h2.32c2.44,0,4.44,1.04,6.01,3.12v33.56c0,2.57-.7,4.68-2.11,6.32-1.4,1.64-3.14,2.46-5.2,2.46H0v3.27h20.99v-3.27h-.88c-2.21,0-4.05-.75-5.54-2.23-1.49-1.49-2.23-3.86-2.23-7.11V10.98l28.69,36.74c-.06.08-.13.16-.21.23-.53.52-1.31.78-2.34.78h-4.64v3.27h27.7v-3.27h-5.97c-.85,0-1.54-.26-2.08-.78-.54-.51-.81-1.24-.81-2.18v-16.94h9.64c3,0,6.03-.52,9.08-1.55,3.06-1.03,5.5-2.69,7.32-4.97,1.81-2.29,2.72-4.95,2.72-8,0-4.01-1.57-7.4-4.71-10.16ZM68.84,20.69c-.74,1.37-1.98,2.54-3.73,3.5-1.74.96-3.74,1.44-5.99,1.44h-6.44V5.8c0-.94.31-1.6.94-1.98.62-.39,2.09-.59,4.41-.59,4.01,0,6.84.63,8.51,1.87,2.27,1.73,3.41,4.71,3.41,8.93,0,3.07-.37,5.29-1.11,6.66Z"/>
  </g>
</svg>